:FULLY-SPECIFIED
:FORCE-ALL-JOINTS-BE-3DOF
:DEGREES
453
root 10.6968 17.2775 27.5389 5.97106 1.12747 1.36759
lfemur -21.0564 3.43007 -26.8301
ltibia 28.0186 0 0
lfoot -12.4037 4.99903 0
ltoes 3.19664 0 0
rfemur -19.1076 0.0194934 18.0097
rtibia 52.712 0 0
rfoot -3.16707 -5.97113 0
rtoes -15.6201 0 0
lowerback -5.16736 -1.0523 -2.72074
upperback -1.94315 -1.28818 1.42711
thorax 1.08092 -0.649882 2.848
lowerneck -20.1449 -3.90942 -11.7793
upperneck 23.9932 -4.85444 11.149
head 11.8264 -1.90027 5.41721
lclavicle 1.43702e-014 1.14846e-014 0
lhumerus -26.79 -11.7093 86.937
lradius 23.2658 0 0
lwrist -0.871595 0 0
lhand -12.6679 -23.9528 0
lfingers 7.12502 0 0
lthumb 13.4128 5.5873 0
rclavicle 1.43702e-014 1.14846e-014 0
rhumerus -45.4032 10.165 -88.4215
rradius 34.5067 0 0
rwrist -16.3123 0 0
rhand -33.5403 -20.3383 0
rfingers 7.12502 0 0
rthumb -6.73384 -50.1396 0
454
root 10.71 17.285 27.6617 5.8556 1.32007 1.46529
lfemur -20.2995 3.40431 -26.9537
ltibia 27.7937 0 0
lfoot -12.7906 4.87744 0
ltoes 3.10516 0 0
rfemur -20.069 0.023108 17.9041
rtibia 52.8101 0 0
rfoot -4.34998 -6.2351 0
rtoes -15.5581 0 0
lowerback -5.15038 -1.25176 -2.7845
upperback -1.8309 -1.55141 1.45356
thorax 1.20586 -0.784492 2.89499
lowerneck -20.3128 -3.81958 -11.6141
upperneck 24.0742 -4.73031 11.0213
head 11.8634 -1.84047 5.36269
lclavicle 1.41249e-014 1.18245e-014 0
lhumerus -25.8792 -12.1984 86.852
lradius 23.4886 0 0
lwrist -0.609697 0 0
lhand -12.7852 -23.991 0
lfingers 7.12502 0 0
lthumb 13.2998 5.55672 0
rclavicle 1.41249e-014 1.18245e-014 0
rhumerus -45.4494 10.2115 -88.3208
rradius 34.8067 0 0
rwrist -16.4964 0 0
rhand -33.9085 -19.9724 0
rfingers 7.12502 0 0
rthumb -7.08928 -49.7638 0
455
root 10.7233 17.2926 27.7845 5.74015 1.51267 1.56299
lfemur -19.5426 3.37855 -27.0774
ltibia 27.5687 0 0
lfoot -13.1775 4.75585 0
ltoes 3.01368 0 0
rfemur -21.0304 0.0267227 17.7985
rtibia 52.9082 0 0
rfoot -5.53289 -6.49908 0
rtoes -15.4962 0 0
lowerback -5.13341 -1.45122 -2.84827
upperback -1.71864 -1.81463 1.48
thorax 1.33081 -0.919103 2.94197
lowerneck -20.4807 -3.72974 -11.4488
upperneck 24.1552 -4.60619 10.8936
head 11.9004 -1.78067 5.30817
lclavicle 1.38797e-014 1.21644e-014 0
lhumerus -24.9683 -12.6875 86.767
lradius 23.7113 0 0
lwrist -0.347799 0 0
lhand -12.9024 -24.0292 0
lfingers 7.12502 0 0
lthumb 13.1868 5.52613 0
rclavicle 1.38797e-014 1.21644e-014 0
rhumerus -45.4955 10.258 -88.2201
rradius 35.1066 0 0
rwrist -16.6805 0 0
rhand -34.2767 -19.6065 0
rfingers 7.12502 0 0
rthumb -7.44472 -49.388 0
456
root 10.7365 17.3002 27.9074 5.62469 1.70526 1.66069
lfemur -18.7858 3.35279 -27.201
ltibia 27.3438 0 0
lfoot -13.5644 4.63427 0
ltoes 2.92219 0 0
rfemur -21.9918 0.0303374 17.6929
rtibia 53.0063 0 0
rfoot -6.7158 -6.76305 0
rtoes -15.4343 0 0
lowerback -5.11644 -1.65069 -2.91204
upperback -1.60638 -2.07785 1.50645
thorax 1.45575 -1.05371 2.98895
lowerneck -20.6486 -3.6399 -11.2836
upperneck 24.2362 -4.48207 10.7659
head 11.9374 -1.72087 5.25366
lclavicle 1.36344e-014 1.25042e-014 0
lhumerus -24.0575 -13.1766 86.682
lradius 23.9341 0 0
lwrist -0.0859006 0 0
lhand -13.0197 -24.0674 0
lfingers 7.12502 0 0
lthumb 13.0738 5.49554 0
rclavicle 1.36344e-014 1.25042e-014 0
rhumerus -45.5417 10.3044 -88.1194
rradius 35.4065 0 0
rwrist -16.8645 0 0
rhand -34.6449 -19.2406 0
rfingers 7.12502 0 0
rthumb -7.80017 -49.0122 0
457
root 10.7497 17.3077 28.0302 5.50924 1.89786 1.75839
lfemur -18.0289 3.32704 -27.3246
ltibia 27.1188 0 0
lfoot -13.9512 4.51268 0
ltoes 2.83071 0 0
rfemur -22.9532 0.0339521 17.5873
rtibia 53.1045 0 0
rfoot -7.89871 -7.02703 0
rtoes -15.3723 0 0
lowerback -5.09946 -1.85015 -2.97581
upperback -1.49412 -2.34108 1.53289
thorax 1.58069 -1.18832 3.03593
lowerneck -20.8166 -3.55005 -11.1183
upperneck 24.3172 -4.35794 10.6382
head 11.9744 -1.66107 5.19914
lclavicle 1.33891e-014 1.28441e-014 0
lhumerus -23.1467 -13.6657 86.5971
lradius 24.1569 0 0
lwrist 0.175997 0 0
lhand -13.137 -24.1057 0
lfingers 7.12502 0 0
lthumb 12.9607 5.46495 0
rclavicle 1.33891e-014 1.28441e-014 0
rhumerus -45.5879 10.3509 -88.0187
rradius 35.7064 0 0
rwrist -17.0486 0 0
rhand -35.0131 -18.8747 0
rfingers 7.12502 0 0
rthumb -8.15561 -48.6364 0
458
root 10.7629 17.3153 28.153 5.39378 2.09045 1.85609
lfemur -17.2721 3.30128 -27.4482
ltibia 26.8939 0 0
lfoot -14.3381 4.39109 0
ltoes 2.73922 0 0
rfemur -23.9146 0.0375668 17.4817
rtibia 53.2026 0 0
rfoot -9.08162 -7.291 0
rtoes -15.3104 0 0
lowerback -5.08249 -2.04961 -3.03957
upperback -1.38186 -2.6043 1.55934
thorax 1.70563 -1.32293 3.08291
lowerneck -20.9845 -3.46021 -10.953
upperneck 24.3982 -4.23382 10.5105
head 12.0114 -1.60127 5.14462
lclavicle 1.31438e-014 1.31839e-014 0
lhumerus -22.2359 -14.1548 86.5121
lradius 24.3797 0 0
lwrist 0.437895 0 0
lhand -13.2543 -24.1439 0
lfingers 7.12502 0 0
lthumb 12.8477 5.43436 0
rclavicle 1.31438e-014 1.31839e-014 0
rhumerus -45.6341 10.3974 -87.918
rradius 36.0063 0 0
rwrist -17.2327 0 0
rhand -35.3813 -18.5088 0
rfingers 7.12502 0 0
rthumb -8.51105 -48.2606 0
459
root 10.7761 17.3228 28.2759 5.27833 2.28305 1.95379
lfemur -16.5152 3.27552 -27.5718
ltibia 26.669 0 0
lfoot -14.725 4.26951 0
ltoes 2.64774 0 0
rfemur -24.876 0.0411814 17.3761
rtibia 53.3007 0 0
rfoot -10.2645 -7.55497 0
rtoes -15.2484 0 0
lowerback -5.06551 -2.24908 -3.10334
upperback -1.2696 -2.86753 1.58578
thorax 1.83057 -1.45755 3.1299
lowerneck -21.1524 -3.37037 -10.7878
upperneck 24.4792 -4.10969 10.3828
head 12.0484 -1.54147 5.09011
lclavicle 1.28985e-014 1.35238e-014 0
lhumerus -21.3251 -14.6439 86.4271
lradius 24.6025 0 0
lwrist 0.699794 0 0
lhand -13.3716 -24.1821 0
lfingers 7.12502 0 0
lthumb 12.7347 5.40378 0
rclavicle 1.28985e-014 1.35238e-014 0
rhumerus -45.6803 10.4438 -87.8174
rradius 36.3063 0 0
rwrist -17.4167 0 0
rhand -35.7495 -18.1429 0
rfingers 7.12502 0 0
rthumb -8.8665 -47.8848 0
460
root 10.7893 17.3304 28.3987 5.16287 2.47565 2.05148
lfemur -15.7583 3.24976 -27.6955
ltibia 26.444 0 0
lfoot -15.1119 4.14792 0
ltoes 2.55626 0 0
rfemur -25.8374 0.0447961 17.2705
rtibia 53.3988 0 0
rfoot -11.4474 -7.81895 0
rtoes -15.1865 0 0
lowerback -5.04854 -2.44854 -3.16711
upperback -1.15734 -3.13075 1.61223
thorax 1.95551 -1.59216 3.17688
lowerneck -21.3203 -3.28053 -10.6225
upperneck 24.5602 -3.98557 10.2552
head 12.0854 -1.48167 5.03559
lclavicle 1.26533e-014 1.38636e-014 0
lhumerus -20.4143 -15.133 86.3421
lradius 24.8253 0 0
lwrist 0.961692 0 0
lhand -13.4888 -24.2203 0
lfingers 7.12502 0 0
lthumb 12.6217 5.37319 0
rclavicle 1.26533e-014 1.38636e-014 0
rhumerus -45.7264 10.4903 -87.7167
rradius 36.6062 0 0
rwrist -17.6008 0 0
rhand -36.1177 -17.777 0
rfingers 7.12502 0 0
rthumb -9.22194 -47.509 0
